<svg width="75" height="25" viewBox="0 0 75 25" fill="none" xmlns="http://www.w3.org/2000/svg">
<path d="M4.848 17.208C3.77067 17.208 2.85333 16.968 2.096 16.488C1.34933 15.9973 0.826667 15.32 0.528 14.456L2.112 13.528C2.56 14.7867 3.488 15.416 4.896 15.416C5.57867 15.416 6.096 15.2827 6.448 15.016C6.8 14.7493 6.976 14.392 6.976 13.944C6.976 13.496 6.78933 13.1493 6.416 12.904C6.04267 12.6587 5.38133 12.392 4.432 12.104C3.46133 11.816 2.67733 11.4747 2.08 11.08C1.35467 10.568 0.992 9.816 0.992 8.824C0.992 7.832 1.344 7.048 2.048 6.472C2.74133 5.88533 3.58933 5.592 4.592 5.592C5.47733 5.592 6.256 5.81067 6.928 6.248C7.61067 6.67467 8.13333 7.27733 8.496 8.056L6.944 8.952C6.47467 7.90667 5.69067 7.384 4.592 7.384C4.05867 7.384 3.632 7.512 3.312 7.768C2.992 8.01333 2.832 8.34933 2.832 8.776C2.832 9.192 2.992 9.52267 3.312 9.768C3.632 10.0027 4.224 10.2533 5.088 10.52C5.62133 10.7013 5.93067 10.808 6.016 10.84C6.15467 10.8827 6.432 10.9893 6.848 11.16C7.18933 11.2987 7.46133 11.448 7.664 11.608C8.496 12.2587 8.88 13.0267 8.816 13.912C8.816 14.9253 8.448 15.7307 7.712 16.328C6.99733 16.9147 6.04267 17.208 4.848 17.208ZM11.9369 7.48C11.7235 7.69333 11.4675 7.8 11.1689 7.8C10.8702 7.8 10.6089 7.69333 10.3849 7.48C10.1715 7.256 10.0649 6.99467 10.0649 6.696C10.0649 6.39733 10.1715 6.14133 10.3849 5.928C10.5982 5.704 10.8595 5.592 11.1689 5.592C11.4782 5.592 11.7395 5.704 11.9529 5.928C12.1662 6.14133 12.2729 6.39733 12.2729 6.696C12.2729 6.99467 12.1609 7.256 11.9369 7.48ZM12.0329 17H10.3049V9H12.0329V17ZM20.4073 10.184V9H22.1033V16.632C22.1033 17.848 21.7033 18.7813 20.9033 19.432C20.1139 20.0827 19.1433 20.408 17.9913 20.408C16.1459 20.408 14.8819 19.7627 14.1993 18.472L15.6873 17.608C16.1033 18.4293 16.8819 18.84 18.0233 18.84C18.7699 18.84 19.3513 18.6427 19.7673 18.248C20.1939 17.864 20.4073 17.3253 20.4073 16.632V15.656C19.7566 16.584 18.8286 17.048 17.6233 17.048C16.5033 17.048 15.5486 16.648 14.7593 15.848C13.9806 15.0373 13.5913 14.0613 13.5913 12.92C13.5913 11.768 13.9806 10.7973 14.7593 10.008C15.5379 9.19733 16.4926 8.792 17.6233 8.792C18.8286 8.792 19.7566 9.256 20.4073 10.184ZM16.0393 14.712C16.5299 15.192 17.1379 15.432 17.8633 15.432C18.5886 15.432 19.1913 15.192 19.6713 14.712C20.1619 14.232 20.4073 13.6347 20.4073 12.92C20.4073 12.2053 20.1619 11.608 19.6713 11.128C19.1913 10.648 18.5886 10.408 17.8633 10.408C17.1379 10.408 16.5299 10.648 16.0393 11.128C15.5593 11.608 15.3193 12.2053 15.3193 12.92C15.3193 13.6347 15.5593 14.232 16.0393 14.712ZM28.3254 8.792C29.2534 8.792 29.9947 9.09067 30.5494 9.688C31.1147 10.2747 31.3974 11.0747 31.3974 12.088V17H29.6694V12.264C29.6694 11.6667 29.5094 11.208 29.1894 10.888C28.8694 10.568 28.432 10.408 27.8774 10.408C27.248 10.408 26.752 10.6053 26.3894 11C26.0267 11.384 25.8454 11.9547 25.8454 12.712V17H24.1174V9H25.8454V10.024C26.3787 9.20267 27.2054 8.792 28.3254 8.792ZM38.89 7.48C38.6767 7.69333 38.4207 7.8 38.122 7.8C37.8233 7.8 37.562 7.69333 37.338 7.48C37.1247 7.256 37.018 6.99467 37.018 6.696C37.018 6.39733 37.1247 6.14133 37.338 5.928C37.5513 5.704 37.8127 5.592 38.122 5.592C38.4313 5.592 38.6927 5.704 38.906 5.928C39.1193 6.14133 39.226 6.39733 39.226 6.696C39.226 6.99467 39.114 7.256 38.89 7.48ZM38.986 17H37.258V9H38.986V17ZM45.2004 8.792C46.1284 8.792 46.8697 9.09067 47.4244 9.688C47.9897 10.2747 48.2724 11.0747 48.2724 12.088V17H46.5444V12.264C46.5444 11.6667 46.3844 11.208 46.0644 10.888C45.7444 10.568 45.307 10.408 44.7524 10.408C44.123 10.408 43.627 10.6053 43.2644 11C42.9017 11.384 42.7204 11.9547 42.7204 12.712V17H40.9924V9H42.7204V10.024C43.2537 9.20267 44.0804 8.792 45.2004 8.792Z" fill="white"/>
<path d="M59 13H73M73 13L70.5 10M73 13L70.5 16" stroke="white" stroke-width="2"/>
</svg>
