<svg width="97" height="26" viewBox="0 0 97 26" fill="none" xmlns="http://www.w3.org/2000/svg">
<path d="M38.848 18.208C37.7707 18.208 36.8533 17.968 36.096 17.488C35.3493 16.9973 34.8267 16.32 34.528 15.456L36.112 14.528C36.56 15.7867 37.488 16.416 38.896 16.416C39.5787 16.416 40.096 16.2827 40.448 16.016C40.8 15.7493 40.976 15.392 40.976 14.944C40.976 14.496 40.7893 14.1493 40.416 13.904C40.0427 13.6587 39.3813 13.392 38.432 13.104C37.4613 12.816 36.6773 12.4747 36.08 12.08C35.3547 11.568 34.992 10.816 34.992 9.824C34.992 8.832 35.344 8.048 36.048 7.472C36.7413 6.88533 37.5893 6.592 38.592 6.592C39.4773 6.592 40.256 6.81067 40.928 7.248C41.6107 7.67467 42.1333 8.27733 42.496 9.056L40.944 9.952C40.4747 8.90667 39.6907 8.384 38.592 8.384C38.0587 8.384 37.632 8.512 37.312 8.768C36.992 9.01333 36.832 9.34933 36.832 9.776C36.832 10.192 36.992 10.5227 37.312 10.768C37.632 11.0027 38.224 11.2533 39.088 11.52C39.6213 11.7013 39.9307 11.808 40.016 11.84C40.1547 11.8827 40.432 11.9893 40.848 12.16C41.1893 12.2987 41.4613 12.448 41.664 12.608C42.496 13.2587 42.88 14.0267 42.816 14.912C42.816 15.9253 42.448 16.7307 41.712 17.328C40.9973 17.9147 40.0427 18.208 38.848 18.208ZM53.0409 9.792C53.9475 9.792 54.6782 10.0853 55.2329 10.672C55.7875 11.2587 56.0649 12.048 56.0649 13.04V18H54.3369V13.152C54.3369 12.608 54.1982 12.1813 53.9209 11.872C53.6435 11.5627 53.2649 11.408 52.7849 11.408C52.2409 11.408 51.8142 11.5893 51.5049 11.952C51.1955 12.304 51.0409 12.8267 51.0409 13.52V18H49.3129V13.152C49.3129 12.5973 49.1795 12.1707 48.9129 11.872C48.6569 11.5627 48.2889 11.408 47.8089 11.408C47.2755 11.408 46.8435 11.5893 46.5129 11.952C46.1929 12.3147 46.0329 12.8373 46.0329 13.52V18H44.3049V10H46.0329V10.96C46.5449 10.1813 47.3075 9.792 48.3209 9.792C49.3449 9.792 50.1022 10.2133 50.5929 11.056C51.1155 10.2133 51.9315 9.792 53.0409 9.792ZM64.2503 11.136V10H65.9783V18H64.2503V16.848C63.5996 17.7547 62.6663 18.208 61.4503 18.208C60.3516 18.208 59.4129 17.8027 58.6343 16.992C57.8556 16.1813 57.4663 15.184 57.4663 14C57.4663 12.816 57.8556 11.8187 58.6343 11.008C59.4129 10.1973 60.3516 9.792 61.4503 9.792C62.6663 9.792 63.5996 10.24 64.2503 11.136ZM59.9143 15.84C60.3943 16.32 60.9969 16.56 61.7223 16.56C62.4476 16.56 63.0503 16.32 63.5303 15.84C64.0103 15.3493 64.2503 14.736 64.2503 14C64.2503 13.264 64.0103 12.656 63.5303 12.176C63.0503 11.6853 62.4476 11.44 61.7223 11.44C60.9969 11.44 60.3943 11.6853 59.9143 12.176C59.4343 12.656 59.1943 13.264 59.1943 14C59.1943 14.7253 59.4343 15.3387 59.9143 15.84ZM69.7204 10V11.344C70.1577 10.352 70.979 9.856 72.1844 9.856V11.728C71.5337 11.6853 70.9577 11.8453 70.4564 12.208C69.9657 12.56 69.7204 13.1467 69.7204 13.968V18H67.9924V10H69.7204ZM78.1283 10V11.664H76.1443V15.504C76.1443 15.8347 76.2189 16.0747 76.3683 16.224C76.5176 16.3627 76.7363 16.4427 77.0243 16.464C77.3229 16.4747 77.6909 16.4693 78.1283 16.448V18C76.8056 18.16 75.8563 18.048 75.2803 17.664C74.7043 17.2693 74.4163 16.5493 74.4163 15.504V11.664H72.9443V10H74.4163V8.272L76.1443 7.76V10H78.1283ZM83.8856 18V6.8H85.7256V18H83.8856ZM94.1878 11.136V6.8H95.9158V18H94.1878V16.848C93.5371 17.7547 92.6038 18.208 91.3878 18.208C90.2891 18.208 89.3504 17.8027 88.5718 16.992C87.7931 16.1813 87.4038 15.184 87.4038 14C87.4038 12.816 87.7931 11.8187 88.5718 11.008C89.3504 10.1973 90.2891 9.792 91.3878 9.792C92.6038 9.792 93.5371 10.24 94.1878 11.136ZM89.8518 15.84C90.3318 16.32 90.9344 16.56 91.6598 16.56C92.3851 16.56 92.9878 16.32 93.4678 15.84C93.9478 15.3493 94.1878 14.736 94.1878 14C94.1878 13.264 93.9478 12.656 93.4678 12.176C92.9878 11.6853 92.3851 11.44 91.6598 11.44C90.9344 11.44 90.3318 11.6853 89.8518 12.176C89.3718 12.656 89.1318 13.264 89.1318 14C89.1318 14.7253 89.3718 15.3387 89.8518 15.84Z" fill="#567DF4"/>
<path d="M6.8114 21.372C6.0282 19.9675 5.614 18.2458 5.614 16.3817C5.614 13.249 8.32596 10.6989 11.6529 10.6989C14.9862 10.6989 17.6917 13.2491 17.6917 16.3817C17.6917 16.7377 17.983 17.029 18.339 17.029C18.695 17.029 18.9863 16.7377 18.9863 16.3817C18.9863 12.5306 15.6982 9.40434 11.6529 9.40434C7.60764 9.40434 4.31946 12.5371 4.31946 16.3817C4.31946 18.4659 4.79197 20.4141 5.68518 22.0063C6.55897 23.5662 7.1674 24.2847 8.28713 25.4173C8.41656 25.5468 8.57839 25.6115 8.74666 25.6115C8.90849 25.6115 9.07676 25.5532 9.19326 25.4173C9.45218 25.1714 9.45218 24.7571 9.19975 24.5047C8.20297 23.5015 7.64635 22.8608 6.8114 21.372Z" fill="#567DF4"/>
<path d="M4.45551 3.11973C6.6756 1.90935 9.0963 1.29448 11.6659 1.29448C14.2419 1.29448 16.3973 1.84467 18.8763 3.12622C18.9734 3.17155 19.0705 3.1974 19.1741 3.1974C19.4071 3.1974 19.6336 3.06797 19.7501 2.84789C19.9119 2.53071 19.7889 2.13593 19.4718 1.9741C16.831 0.608437 14.4232 0 11.6659 0C8.88271 0 6.24841 0.666689 3.83414 1.98059C3.51697 2.15535 3.40696 2.5437 3.57522 2.86087C3.74998 3.17798 4.13833 3.28806 4.45551 3.11973Z" fill="#567DF4"/>
<path d="M11.6069 6.25217C7.43217 6.25217 3.61341 8.58876 1.88525 12.2004C1.29623 13.4237 0.998535 14.8347 0.998535 16.3881C0.998535 18.1357 1.30922 19.8056 1.9435 21.5079C2.07293 21.8445 2.44187 22.0127 2.77846 21.8897C3.11505 21.7603 3.28331 21.3914 3.16031 21.0548C2.39005 18.9901 2.29945 17.3978 2.29945 16.3881C2.29945 15.0289 2.55188 13.8056 3.05673 12.757C4.5713 9.58549 7.93054 7.54022 11.6134 7.54022C16.7849 7.54022 20.9921 11.5079 20.9921 16.3881C20.9921 17.7797 19.7817 18.9059 18.2995 18.9059C16.8173 18.9059 15.607 17.7732 15.607 16.3881C15.607 14.2845 13.8205 12.5758 11.6199 12.5758C9.4192 12.5758 7.63278 14.2845 7.63278 16.3881C7.63278 18.9447 8.62957 21.3461 10.4354 23.1454C11.8335 24.537 13.1798 25.3008 15.2445 25.8639C15.2962 25.8833 15.3545 25.8898 15.4127 25.8898C15.6975 25.8898 15.9564 25.7021 16.0341 25.4173C16.1312 25.0743 15.9241 24.7183 15.581 24.6212C13.7557 24.1228 12.5648 23.4496 11.3415 22.2328C9.78158 20.6794 8.92077 18.6017 8.92077 16.3946C8.92077 15.003 10.1312 13.8768 11.6133 13.8768C13.0955 13.8768 14.3059 15.0095 14.3059 16.3946C14.3059 18.4982 16.0988 20.2069 18.293 20.2069C20.4871 20.2069 22.28 18.4982 22.28 16.3946C22.2801 10.8024 17.4905 6.25217 11.6069 6.25217Z" fill="#567DF4"/>
<path d="M23.1868 8.93182C21.8988 7.13248 20.2677 5.72144 18.3324 4.72471C14.2548 2.62761 9.05085 2.63411 4.97966 4.73763C3.03791 5.74085 1.40034 7.16483 0.118785 8.97715C-0.0883156 9.26841 -0.0171382 9.66969 0.274125 9.87685C0.39063 9.95452 0.52006 9.99336 0.649551 9.99336C0.850219 9.99336 1.05083 9.90276 1.18032 9.728C2.33888 8.084 3.8211 6.79595 5.57517 5.88982C9.28393 3.97398 14.0283 3.96749 17.7435 5.8769C19.4911 6.7701 20.9668 8.05166 22.1318 9.68273C22.3389 9.974 22.7467 10.0387 23.038 9.83158C23.3292 9.62436 23.394 9.22309 23.1868 8.93182Z" fill="#567DF4"/>
<path d="M19.3743 21.7994C18.8565 21.89 18.3322 21.9224 18.0215 21.9224C16.7271 21.9224 15.6526 21.6182 14.74 20.9968C13.1672 19.9289 12.2286 18.2072 12.2286 16.3884C12.2286 16.0324 11.9374 15.7411 11.5814 15.7411C11.2253 15.7411 10.9341 16.0324 10.9341 16.3884C10.9341 18.6408 12.0862 20.7638 14.0085 22.0712C15.1283 22.8285 16.4811 23.2169 18.0215 23.2169C18.2027 23.2169 18.8435 23.2104 19.6008 23.0745C19.9503 23.0097 20.1898 22.6732 20.1251 22.3237C20.0603 21.9742 19.7238 21.7347 19.3743 21.7994Z" fill="#567DF4"/>
</svg>
