<svg width="42" height="42" viewBox="0 0 42 42" fill="none" xmlns="http://www.w3.org/2000/svg">
<circle cx="21" cy="21" r="21" fill="#EEF7FE"/>
<path d="M23.0084 11.0973C22.9053 11.0135 22.7695 10.9815 22.6398 11.0104L11.3374 13.6187C11.1385 13.6644 10.9981 13.8423 11 14.0464V28.8265C11.0001 29.041 11.1566 29.2234 11.3686 29.256L22.6711 30.9949C22.9084 31.0314 23.1303 30.8686 23.1668 30.6313C23.1701 30.6095 23.1718 30.5875 23.1718 30.5654V11.4382C23.1723 11.3056 23.1121 11.1801 23.0084 11.0973Z" fill="#567DF4"/>
<path d="M16.1409 23.5193H15.0148L13.609 18.4984H14.649L15.6101 22.2211L16.6574 18.4984H17.5037L18.5581 22.2211L19.5193 18.4984H20.5593L19.1535 23.5193H18.0273L17.0806 20.2055L16.1409 23.5193Z" fill="white"/>
<path d="M31.4314 29.2613H22.7372C22.4971 29.2613 22.3024 29.0667 22.3024 28.8266C22.3024 28.5865 22.4971 28.3919 22.7372 28.3919H30.9966V13.6118H22.7372C22.4971 13.6118 22.3024 13.4172 22.3024 13.1771C22.3024 12.937 22.4971 12.7424 22.7372 12.7424H31.4313C31.6714 12.7424 31.866 12.937 31.866 13.1771V28.8267C31.866 29.0667 31.6714 29.2613 31.4314 29.2613Z" fill="#567DF4"/>
<path d="M29.6918 16.2198H22.7364C22.4964 16.2198 22.3017 16.0251 22.3017 15.7851C22.3017 15.545 22.4964 15.3503 22.7364 15.3503H29.6918C29.9319 15.3503 30.1265 15.545 30.1265 15.7851C30.1265 16.0252 29.9319 16.2198 29.6918 16.2198Z" fill="#567DF4"/>
<path d="M29.6911 18.8285H22.7358C22.4957 18.8285 22.301 18.6338 22.301 18.3937C22.301 18.1537 22.4957 17.959 22.7358 17.959H29.6911C29.9312 17.959 30.1258 18.1537 30.1258 18.3937C30.1258 18.6338 29.9312 18.8285 29.6911 18.8285Z" fill="#567DF4"/>
<path d="M29.6911 21.4369H22.7358C22.4957 21.4369 22.301 21.2423 22.301 21.0022C22.301 20.7621 22.4957 20.5675 22.7358 20.5675H29.6911C29.9312 20.5675 30.1258 20.7621 30.1258 21.0022C30.1258 21.2423 29.9312 21.4369 29.6911 21.4369Z" fill="#567DF4"/>
<path d="M29.6911 24.0454H22.7358C22.4957 24.0454 22.301 23.8507 22.301 23.6107C22.301 23.3706 22.4957 23.1759 22.7358 23.1759H29.6911C29.9312 23.1759 30.1258 23.3706 30.1258 23.6107C30.1258 23.8508 29.9312 24.0454 29.6911 24.0454Z" fill="#567DF4"/>
<path d="M29.6911 26.6533H22.7358C22.4957 26.6533 22.301 26.4586 22.301 26.2186C22.301 25.9785 22.4957 25.7838 22.7358 25.7838H29.6911C29.9312 25.7838 30.1258 25.9785 30.1258 26.2186C30.1258 26.4587 29.9312 26.6533 29.6911 26.6533Z" fill="#567DF4"/>
</svg>
